<svg xmlns="http://www.w3.org/2000/svg" width="36" height="20" aria-hidden="true" class="icon icon--wide icon-paypal">
  <path fill="#2977BC" d="M33.7 7.14h2l-1.66 7.5h-1.99zm-28.37.02q.92 0 1.56.67t.38 1.87q-.24 1.15-1.07 1.8t-1.96.66H2.7l-.55 2.48H0l1.64-7.48h3.7zm19.14 0q.92 0 1.57.67t.39 1.87q-.16.76-.6 1.33t-1.07.85-1.4.28h-1.52l-.53 2.48h-2.15l1.64-7.48h3.68zM8.03 9.06l.42-.1.53-.13q.21-.06.57-.1t.68-.05q.55-.02 1.03.08t.88.31.56.65.03 1.01l-.82 3.91H9.94l.14-.59q-.41.41-1.04.6t-1.18.08-.89-.62-.18-1.38q.22-1.02 1.23-1.46t2.74-.44q.06-.29-.06-.47t-.35-.24-.63-.05q-.5.02-1.09.16t-.78.25zm19.18 0 .34-.08.42-.11q.19-.06.44-.09t.5-.07.54-.02q.57-.02 1.05.07t.88.32.57.64.04 1.02l-.84 3.9h-1.99l.14-.58q-.41.4-1.05.58t-1.2.1-.9-.62-.17-1.4q.13-.7.68-1.11t1.35-.6 1.97-.18q.1-.44-.16-.61t-.87-.15q-.35 0-.76.08t-.72.17-.46.16zM4 10.72q.27 0 .53-.13t.45-.37.24-.53q.12-.43-.1-.72t-.62-.3H3.48L3 10.73h1zm19.15 0q.41 0 .78-.3t.47-.73-.12-.72-.62-.3h-1.1l-.42 2.05h1.01zM13.63 8.8l.8 5.88L13 17.14h2.2l4.7-8.34h-2.04l-1.95 3.48-.31-3.48h-1.96zm-3.23 3.9q0-.2.1-.53H10q-.93 0-1.18.49-.2.35-.01.59t.54.23q.85-.04 1.05-.78zm19.2 0q.04-.33.12-.53h-.5q-.97 0-1.18.49-.2.35-.01.59t.54.23q.87-.04 1.03-.78z"/>
</svg>
