<svg xmlns="http://www.w3.org/2000/svg" width="30" height="30" aria-hidden="true" class="icon icon--wide icon-master" viewBox="0 0 23 15">
  <path fill="#2977BC" fill-rule="evenodd" d="M17.38 8.17c-.54 0-.65.23-.65.43 0 .1.06.28.29.28.43 0 .53-.58.5-.7l-.14-.01zm-6.3-.98c-.4 0-.48.45-.48.5h.81c0-.04.07-.5-.34-.5zm-5.53.98c-.54 0-.65.23-.65.43 0 .1.06.28.29.28.44 0 .53-.58.51-.7l-.15-.01zM21 7.27c-.33 0-.58.37-.58.93 0 .35.12.57.39.57.4 0 .58-.51.58-.9 0-.42-.13-.6-.4-.6zM16.3.95a6.7 6.7 0 0 0-4.38 1.62A7 7 0 0 1 13.8 5.6h-.32a6.77 6.77 0 0 0-1.79-2.81A6.72 6.72 0 0 0 9.91 5.6h-.33a7 7 0 0 1 2-3.12A6.82 6.82 0 0 0 7.1.8 6.86 6.86 0 0 0 .24 7.66a6.86 6.86 0 0 0 11.34 5.2 7.07 7.07 0 0 1-1.87-2.77h.33a6.73 6.73 0 0 0 1.65 2.45 6.73 6.73 0 0 0 1.66-2.45h.33a6.94 6.94 0 0 1-1.76 2.66 6.7 6.7 0 0 0 4.37 1.62 6.72 6.72 0 0 0 0-13.42zM3.12 9.44l.41-2.62-.93 2.62h-.5l-.06-2.62-.45 2.62H.9l.58-3.48h1.07l.03 2.14.72-2.14h1.15l-.58 3.48h-.74zm2.5 0 .02-.28c-.02 0-.23.34-.76.34-.26 0-.7-.14-.7-.78 0-.81.66-1.08 1.3-1.08l.31.01s.02-.04.02-.18c0-.22-.2-.26-.46-.26-.48 0-.8.13-.8.13l.1-.63s.39-.16.89-.16c.26 0 1 .03 1 .89l-.28 2h-.65zm2.7-.89c0 .97-.93.93-1.1.93-.62 0-.8-.09-.82-.1l.1-.63s.3.1.64.1c.2 0 .45 0 .45-.25 0-.35-.9-.26-.9-1.1 0-.74.54-.95 1.08-.95.42 0 .68.05.68.05l-.1.65-.5-.03c-.25 0-.4.05-.4.23 0 .38.88.2.88 1.1zM9.4 7.31l-.2 1.26c-.02.1 0 .24.26.24l.19-.02-.1.62c-.07.02-.28.1-.54.1-.34 0-.58-.2-.58-.63 0-.3.41-2.67.43-2.69h.73l-.08.43h.36l-.1.69H9.4zm1.77 1.55c.37 0 .78-.18.78-.18l-.13.7s-.24.13-.77.13c-.58 0-1.26-.25-1.26-1.28 0-.89.55-1.68 1.28-1.68.8 0 1.04.59 1.04 1.07 0 .2-.1.67-.1.67h-1.48c0-.02-.14.56.64.56zm2.43-1.42c-.5-.18-.55.8-.76 2h-.75l.45-2.82h.68l-.06.4s.25-.44.57-.44a.92.92 0 0 1 .14.01c-.1.2-.19.38-.27.84zm2.1 1.96s-.4.1-.64.1c-.87 0-1.32-.6-1.32-1.51 0-1.38.83-2.1 1.67-2.1.38 0 .82.17.82.17l-.12.78s-.3-.21-.67-.21c-.5 0-.94.48-.94 1.33 0 .43.2.83.72.83.25 0 .6-.18.6-.18l-.12.79zm1.75.04.02-.28c-.01 0-.23.34-.75.34-.27 0-.7-.15-.7-.78 0-.82.66-1.08 1.3-1.08l.3.01s.03-.04.03-.18c0-.22-.2-.26-.47-.26-.47 0-.8.13-.8.13l.11-.63s.39-.16.88-.16c.26 0 1 .03 1 .89l-.27 2h-.65zm1.51 0h-.75l.45-2.82h.69l-.06.41s.24-.45.56-.45l.14.01c-.1.2-.18.38-.27.85-.5-.18-.54.8-.76 2zm2.24 0 .03-.26s-.25.3-.69.3c-.6 0-.9-.58-.9-1.18 0-.93.56-1.73 1.22-1.73.44 0 .71.37.71.37l.16-.97h.73l-.56 3.47h-.7zm1.36-.01a.2.2 0 0 1-.1.02.18.18 0 0 1-.11-.03.23.23 0 0 1-.09-.08.19.19 0 0 1-.03-.1c0-.05.01-.09.03-.12a.23.23 0 0 1 .09-.08.19.19 0 0 1 .1-.03c.04 0 .08 0 .11.03.04.02.06.05.09.08.02.04.03.07.03.11a.18.18 0 0 1-.03.11.22.22 0 0 1-.09.08zm-.02-.36a.2.2 0 0 0-.18 0 .16.16 0 0 0-.07.07.2.2 0 0 0 0 .18c.01.03.03.06.07.07a.2.2 0 0 0 .18 0 .15.15 0 0 0 .07-.07.2.2 0 0 0 0-.18.16.16 0 0 0-.07-.07zm-.03.29-.02-.04a.18.18 0 0 0-.04-.06h-.06v.1h-.03v-.24h.14l.03.03.01.04c0 .02 0 .03-.02.04l-.04.03.02.01.04.05.03.04h-.06zm-.02-.17v-.02l-.02-.01-.04-.01h-.05v.07h.05l.05-.01.01-.02z"/>
</svg>
