<svg xmlns="http://www.w3.org/2000/svg" width="30" height="30" aria-hidden="true" class="icon icon-american_express" viewBox="0 0 20 20">
  <path fill="#2977BC" d="M8.37 7.62v-.46H6.61v2.21h1.76v-.45H7.13v-.44h1.21v-.46h-1.2v-.4zm2.49.14c0-.25-.1-.4-.27-.49-.17-.1-.36-.1-.64-.1H8.74v2.2h.53v-.8h.56c.2 0 .31.02.4.1.08.1.08.3.08.43v.28h.53v-.44c0-.2-.01-.3-.09-.4a.63.63 0 0 0-.26-.2.64.64 0 0 0 .37-.58zm-.7.31c-.07.05-.15.05-.25.05h-.64v-.5h.65c.1 0 .19.01.25.04s.12.1.12.2c-.01.1-.05.17-.12.21zm-8.87.81h1.1l.2.5h1.08V7.64l.76 1.74h.47l.77-1.74v1.74h.54V7.16h-.88l-.63 1.5-.7-1.5h-.85v2.1l-.9-2.1h-.79L.57 9.23v.14h.52l.2-.49zm.55-1.34.36.88h-.72l.36-.88zm11.22.1h.5v-.48h-.51c-.37 0-.64.08-.8.26-.23.24-.29.54-.29.87 0 .4.1.65.28.85.15.2.41.27.77.24h.62l.2-.49h1.1l.2.5h1.08V7.71l1 1.66h.74v-2.2h-.54V8.7l-.92-1.54h-.81v2.1l-.9-2.1H14l-.75 1.74h-.24c-.14 0-.28-.02-.36-.11-.1-.11-.15-.28-.15-.52 0-.23.06-.4.15-.5.1-.11.22-.14.4-.14zm1.32-.1.37.88h-.73l.36-.88zm-3.21-.38h.54v2.22h-.54V7.16zm1.96 4.4a.52.52 0 0 0-.28-.49 1.3 1.3 0 0 0-.63-.1H11v2.2h.53v-.8h.57c.2 0 .31.02.39.1.1.1.09.3.09.43v.28h.53v-.44c0-.2-.01-.3-.09-.41a.58.58 0 0 0-.26-.19.61.61 0 0 0 .37-.58zm-.7.32a.53.53 0 0 1-.26.04h-.64v-.49h.66a.5.5 0 0 1 .25.04c.07.03.1.1.1.2s-.04.17-.1.2zm-2.57-.91H8.17l-.67.73-.65-.73H4.73v2.21h2.09l.67-.73.66.73h1.02v-.74h.66c.46 0 .92-.12.92-.74s-.47-.73-.89-.73zm-3.31 1.75h-1.3v-.44h1.16v-.46H5.25v-.4h1.33l.58.65-.61.65zm2.1.26-.82-.9.82-.88v1.78zm1.2-.99h-.68v-.56h.69c.2 0 .32.08.32.27s-.13.29-.33.29zm5.33-.57v-.45h-1.76v2.2h1.76v-.45h-1.23v-.44h1.2v-.46h-1.2v-.4zm4.13.65a.17.17 0 0 0-.05-.05c-.12-.12-.31-.18-.6-.18l-.29-.01a.62.62 0 0 1-.2-.03.17.17 0 0 1-.12-.16c0-.08.02-.12.08-.16.06-.04.12-.04.22-.04h.96v-.48h-1.06c-.55 0-.76.34-.76.66 0 .7.62.67 1.12.69.09 0 .14.01.18.05s.07.08.07.14c0 .06-.03.11-.06.15-.04.04-.11.05-.21.05h-1.02v.48h1.02c.34 0 .6-.1.72-.28a.72.72 0 0 0 .12-.42.7.7 0 0 0-.12-.4zm-.78 1.54h-1.36v-.2c-.16.13-.45.2-.72.2h-4.32v-.71c0-.09 0-.1-.09-.1h-.07v.81h-1.42v-.83c-.24.1-.5.11-.73.1h-.17v.74H7.93l-.42-.48-.45.48H4.25v-3.09h2.84l.41.47.43-.47h1.91c.22 0 .58.02.75.18v-.18h1.7c.16 0 .51.03.72.18v-.18h2.58v.18c.12-.12.4-.18.63-.18h1.45v.18c.15-.1.36-.18.66-.18h.98V.26H.57v7.78l.58-1.31h1.38l.18.36v-.36h1.61l.35.79.35-.8h5.13c.23 0 .44.05.59.19v-.18h1.4v.18c.25-.14.55-.18.89-.18h2.03l.19.36v-.36h1.5l.21.36v-.36h1.47V9.8h-1.48l-.28-.47v.46H14.8l-.2-.49h-.45l-.2.5h-.97a1.8 1.8 0 0 1-.84-.2v.2H9.87v-.7c0-.1-.02-.11-.08-.11H9.7v.8H5.3v-.37l-.16.38H4.2l-.16-.38v.37H2.28l-.2-.5h-.46l-.2.5H.56v9.31H19.3v-5.65c-.2.11-.49.15-.77.15zm-2.01-.9h-1.03v.47h1.03c.53 0 .83-.22.83-.7 0-.23-.06-.36-.16-.47-.12-.12-.32-.17-.61-.18h-.29a.62.62 0 0 1-.2-.03.17.17 0 0 1-.12-.17c0-.07.02-.12.08-.16a.46.46 0 0 1 .22-.04h.96v-.47h-1.06c-.55 0-.75.34-.75.66 0 .7.62.66 1.11.68.1 0 .15.02.19.05a.2.2 0 0 1 .07.15c0 .06-.03.1-.06.14-.04.05-.11.06-.21.06z"/>
</svg>
