<svg xmlns="http://www.w3.org/2000/svg" xmlns:xlink="http://www.w3.org/1999/xlink" width="72" height="45" aria-hidden="true" class="icon icon--wide icon-apple_pay">
  <defs>
    <path id="a" d="M5.71 0 5.1.01a9.31 9.31 0 0 0-1.36.12 4.66 4.66 0 0 0-2.38 1.19A4.25 4.25 0 0 0 .13 3.65a8.13 8.13 0 0 0-.12 1.32l-.01.6v33.86l.01.6c.01.44.04.89.12 1.33.08.44.21.85.42 1.25a4.27 4.27 0 0 0 1.9 1.85c.4.2.83.33 1.28.41a9.18 9.18 0 0 0 1.98.13h61.2c.45-.02.9-.05 1.36-.13a4.69 4.69 0 0 0 1.28-.41 4.3 4.3 0 0 0 1.9-1.85c.2-.4.34-.81.42-1.26.08-.43.1-.88.12-1.32l.01-.6V5.57l-.01-.6a8.87 8.87 0 0 0-.12-1.32 4.42 4.42 0 0 0-.42-1.26 4.27 4.27 0 0 0-1.9-1.85 4.74 4.74 0 0 0-1.28-.41A9.48 9.48 0 0 0 66.9 0H5.71zm0 44.06h-.6a8.68 8.68 0 0 1-1.2-.11 3.58 3.58 0 0 1-1.03-.33c-.31-.15-.6-.36-.85-.6a3.3 3.3 0 0 1-.62-.84 3.5 3.5 0 0 1-.33-1 7.74 7.74 0 0 1-.1-1.17 28.63 28.63 0 0 1-.02-.59V5.58L.97 5c.01-.35.03-.77.1-1.18.08-.37.18-.69.34-1a3.35 3.35 0 0 1 1.47-1.43 3.6 3.6 0 0 1 1.02-.33 8.1 8.1 0 0 1 1.21-.1l.6-.01h61.17c.37.02.8.04 1.22.11.38.07.7.17 1.02.33a3.38 3.38 0 0 1 1.47 1.44c.16.3.26.62.33 1 .08.4.1.82.1 1.18l.02.58v33.84l-.01.59a8.3 8.3 0 0 1-.1 1.18 3.45 3.45 0 0 1-.34 1 3.31 3.31 0 0 1-1.47 1.43 3.7 3.7 0 0 1-1.02.33 8.56 8.56 0 0 1-1.82.1l-.73.01H5.72z"/>
    <path id="c" d="M8.81 1.72a3.97 3.97 0 0 0-1 2.94 3.52 3.52 0 0 0 2.82-1.34A4.2 4.2 0 0 0 11.6.28c-.95.03-2.12.64-2.8 1.44zm13.6.24c-.6.07-1.13.15-1.62.23l-.15.03v16.96h1.54v-7.14a10.82 10.82 0 0 0 4.23-.2 5.46 5.46 0 0 0 1.95-1.02 4.97 4.97 0 0 0 1.79-4.05c0-.74-.12-1.4-.35-1.97a4.52 4.52 0 0 0-.96-1.49A4.85 4.85 0 0 0 27 2.25a8.45 8.45 0 0 0-2.65-.37c-.7 0-1.35.03-1.94.1zm.55 8.79a5.08 5.08 0 0 1-.77-.13V3.4a10.21 10.21 0 0 1 2.1-.17c.65 0 1.24.08 1.77.23.53.15.98.38 1.36.67.37.28.67.66.87 1.1.2.47.3 1.01.3 1.63 0 1.28-.4 2.27-1.17 2.93-.8.66-1.92 1-3.35 1-.4 0-.77-.02-1.1-.05zm-14.65-5c-.75 0-1.9-.85-3.14-.82-1.62.02-3.1.94-3.94 2.39-1.68 2.92-.43 7.23 1.2 9.6.8 1.15 1.76 2.45 3.02 2.4 1.2-.04 1.66-.78 3.12-.78.72 0 1.18.2 1.62.38.45.2.87.4 1.52.38 1.3-.03 2.12-1.18 2.92-2.34.91-1.34 1.3-2.64 1.31-2.7-.03-.02-2.53-.98-2.56-3.86-.02-2.42 1.97-3.58 2.06-3.64a4.46 4.46 0 0 0-3.78-1.9c-1.37 0-2.65.9-3.35.9zm25 1.05a5.8 5.8 0 0 0-1.71.81l-.13.09.53 1.22.19-.12A5.11 5.11 0 0 1 35 7.93c.65 0 1.16.12 1.53.35.38.23.66.52.84.86.19.35.31.72.37 1.1.05.4.08.76.08 1.07v.14c-2.3-.01-4.09.37-5.28 1.14a3.85 3.85 0 0 0-1.88 3.4c0 .42.07.84.22 1.26a3.27 3.27 0 0 0 1.83 1.91 4.77 4.77 0 0 0 2.95.12 4.55 4.55 0 0 0 1.94-1.15 5.12 5.12 0 0 0 .29-.32h.06l.14 1.38h1.5l-.05-.23a9.31 9.31 0 0 1-.14-1.36 40.8 40.8 0 0 1-.03-1.45v-4.71c0-.56-.06-1.13-.17-1.7a4.32 4.32 0 0 0-.64-1.58A3.6 3.6 0 0 0 37.27 7a4.5 4.5 0 0 0-2.14-.44 6.81 6.81 0 0 0-1.82.24zm.3 11.15a1.94 1.94 0 0 1-.68-.41 2.03 2.03 0 0 1-.48-.7 2.59 2.59 0 0 1-.18-1.04c0-.66.18-1.2.53-1.6.36-.4.82-.72 1.38-.93a7.04 7.04 0 0 1 1.86-.42 16.61 16.61 0 0 1 1.79-.08v2.4c0 .17-.04.4-.12.67a3.36 3.36 0 0 1-.41.83 3.3 3.3 0 0 1-1.62 1.23c-.37.12-.78.19-1.24.19-.29 0-.56-.05-.82-.14zm13.42-3.26c-.18.47-.35.95-.5 1.42l-.22.66h-.06a32.53 32.53 0 0 0-.7-2.03l-3.08-7.9H40.8l4.42 11.36c.12.27.14.4.14.45 0 .01-.01.1-.14.45a8.3 8.3 0 0 1-.94 1.75c-.35.48-.68.87-.97 1.16a5.25 5.25 0 0 1-1.03.82 9.7 9.7 0 0 1-.98.51l-.17.08.54 1.3.17-.06a6.18 6.18 0 0 0 2.13-1.3 6.81 6.81 0 0 0 1.12-1.26c.33-.47.65-1.02.97-1.63a25.07 25.07 0 0 0 .94-2.06l.99-2.54 3.57-9.04h-1.65l-2.9 7.86z"/>
  </defs>
  <g fill="#2977BC" fill-rule="evenodd">
    <mask id="b" fill="#FFF">
      <use xlink:href="#a"/>
    </mask>
    <path d="M-5 50h82V-5H-5z" mask="url(#b)"/>
    <g transform="translate(10 10)">
      <mask id="d" fill="#FFF">
        <use xlink:href="#c"/>
      </mask>
      <path d="M-4.57 29.73h61.14V-4.72H-4.57z" mask="url(#d)"/>
    </g>
  </g>
</svg>
