<svg xmlns="http://www.w3.org/2000/svg" width="30" height="30" aria-hidden="true" class="icon icon-visa" viewBox="0 0 27 20">
  <path fill="#2977BC" d="M19.16 8.46q-.78-.35-1.62-.33-.6 0-.93.23t-.32.5.28.51.95.56q1.85.84 1.84 2.29 0 1.32-1.04 2.11t-2.77.8q-1.45-.02-2.44-.45l.29-1.92.27.16q1.12.45 2.07.45.53 0 .92-.23t.41-.63q0-.27-.25-.5t-.92-.56l-.66-.37q-.29-.17-.6-.46t-.48-.66-.18-.81q.02-1.23 1.07-2t2.66-.77q1.04 0 1.96.33l-.28 1.85zm-9.14-1.93-3.46 8.48h-2.3l-1.8-6.76q.94.37 1.71 1.13t1.1 1.66Q4.07 7.7 0 6.7l.02-.16h3.54q.82 0 1 .69l.75 3.9.26 1.17L7.7 6.53h2.32zm3.08 0-1.36 8.48H9.55l1.37-8.48h2.19zm13.95 8.48H25q-.16-1-.23-1.27l-2.82-.02L21.5 15h-2.32l3.26-7.8q.3-.68 1.15-.68h1.68zM23.77 8.8l-.14.36-.12.34q-.05.14-.03.12L22.6 12h1.77l-.46-2.46z"/>
</svg>
