<svg xmlns="http://www.w3.org/2000/svg" width="20" height="20" aria-hidden="true" class="icon icon-twitter">
  <path fill="#00ACED" d="M19.55 4.2q-.81 1.21-1.96 2.05l.02.25.02.26q0 1.59-.46 3.18t-1.43 3.03-2.27 2.57-3.16 1.8-3.96.66q-3.3 0-6.03-1.77.57.04.93.04 2.75 0 4.91-1.67-1.28-.02-2.29-.78t-1.41-1.97q.34.08.75.08.55 0 1.04-.16-1.37-.29-2.26-1.37t-.9-2.48v-.04q.77.4 1.77.44-.8-.53-1.26-1.4t-.47-1.86q0-1.01.51-2Q3.13 4.93 5.24 6T9.8 7.2q-.14-.52-.14-.9 0-1.63 1.16-2.78t2.83-1.16q.81 0 1.57.33t1.28.92q1.35-.27 2.5-.96-.42 1.39-1.72 2.18 1.24-.16 2.26-.61z"/>
</svg>
